<?xml version="1.0" encoding="UTF-8"?>
<svg xmlns="http://www.w3.org/2000/svg" xmlns:xlink="http://www.w3.org/1999/xlink" width="1280" height="720" viewBox="0 0 1280 720">
<defs>
<g>
<g id="glyph-0-0">
<path d="M 2.203125 0.0625 C 1.796875 0.0625 1.453125 -0.03125 1.171875 -0.21875 C 0.898438 -0.40625 0.691406 -0.664062 0.546875 -1 C 0.410156 -1.34375 0.34375 -1.738281 0.34375 -2.1875 C 0.34375 -2.625 0.414062 -3.007812 0.5625 -3.34375 C 0.71875 -3.6875 0.941406 -3.953125 1.234375 -4.140625 C 1.523438 -4.328125 1.882812 -4.421875 2.3125 -4.421875 C 2.726562 -4.421875 3.035156 -4.351562 3.234375 -4.21875 C 3.441406 -4.09375 3.546875 -3.929688 3.546875 -3.734375 C 3.546875 -3.609375 3.492188 -3.503906 3.390625 -3.421875 C 3.285156 -3.347656 3.160156 -3.3125 3.015625 -3.3125 C 3.015625 -3.4375 2.988281 -3.554688 2.9375 -3.671875 C 2.894531 -3.796875 2.820312 -3.894531 2.71875 -3.96875 C 2.613281 -4.050781 2.472656 -4.09375 2.296875 -4.09375 C 1.835938 -4.09375 1.507812 -3.925781 1.3125 -3.59375 C 1.125 -3.269531 1.03125 -2.800781 1.03125 -2.1875 C 1.03125 -1.820312 1.070312 -1.5 1.15625 -1.21875 C 1.25 -0.945312 1.382812 -0.734375 1.5625 -0.578125 C 1.75 -0.421875 1.992188 -0.34375 2.296875 -0.34375 C 2.597656 -0.34375 2.832031 -0.394531 3 -0.5 C 3.164062 -0.601562 3.300781 -0.722656 3.40625 -0.859375 C 3.4375 -0.835938 3.460938 -0.804688 3.484375 -0.765625 C 3.503906 -0.734375 3.515625 -0.6875 3.515625 -0.625 C 3.515625 -0.519531 3.46875 -0.414062 3.375 -0.3125 C 3.28125 -0.207031 3.132812 -0.117188 2.9375 -0.046875 C 2.75 0.0234375 2.503906 0.0625 2.203125 0.0625 Z "/>
</g>
</g>
</defs>
<g fill="rgb(93.72549%, 60.392157%, 60.392157%)" fill-opacity="1">
<use xlink:href="#glyph-0-0" x="30" y="26.532227"/>
</g>
</svg>
