<?xml version="1.0" encoding="UTF-8"?>
<svg xmlns="http://www.w3.org/2000/svg" xmlns:xlink="http://www.w3.org/1999/xlink" width="1280" height="720" viewBox="0 0 1280 720">
<defs>
<g>
<g id="glyph-0-0">
<path d="M 0.234375 0 L 0.234375 -0.25 L 0.3125 -0.25 C 0.445312 -0.25 0.5625 -0.273438 0.65625 -0.328125 C 0.757812 -0.378906 0.8125 -0.503906 0.8125 -0.703125 L 0.8125 -3.671875 C 0.8125 -3.859375 0.757812 -3.976562 0.65625 -4.03125 C 0.5625 -4.082031 0.445312 -4.109375 0.3125 -4.109375 L 0.234375 -4.109375 L 0.234375 -4.359375 L 2.015625 -4.359375 L 2.015625 -4.109375 L 1.9375 -4.109375 C 1.800781 -4.109375 1.679688 -4.082031 1.578125 -4.03125 C 1.472656 -3.976562 1.421875 -3.863281 1.421875 -3.6875 L 1.421875 -0.3125 L 2.640625 -0.3125 C 2.753906 -0.3125 2.847656 -0.335938 2.921875 -0.390625 C 3.003906 -0.441406 3.0625 -0.507812 3.09375 -0.59375 C 3.132812 -0.6875 3.160156 -0.773438 3.171875 -0.859375 L 3.234375 -1.3125 L 3.546875 -1.3125 L 3.5 0 Z "/>
</g>
</g>
</defs>
<g fill="rgb(93.72549%, 60.392157%, 60.392157%)" fill-opacity="1">
<use xlink:href="#glyph-0-0" x="30" y="26.532227"/>
</g>
</svg>
